<svg xmlns="http://www.w3.org/2000/svg" fill-rule="evenodd" stroke-linejoin="round" stroke-miterlimit="2" clip-rule="evenodd" viewBox="0 0 64 64" id="programing"><g transform="translate(-192 -192)"><path d="M197 248C197 249.657 198.343 251 200 251L248 251C249.657 251 251 249.657 251 248L251 209 197 209 197 248zM224.91 238.728L228.91 222.728C229.312 221.121 228.334 219.491 226.728 219.09 225.121 218.688 223.491 219.666 223.09 221.272 223.09 221.272 219.09 237.272 219.09 237.272 218.688 238.879 219.666 240.509 221.272 240.91 222.879 241.312 224.509 240.334 224.91 238.728zM210.243 230L216.121 224.121C217.292 222.951 217.292 221.049 216.121 219.879 214.951 218.708 213.049 218.708 211.879 219.879L203.879 227.879C202.707 229.05 202.707 230.95 203.879 232.121 203.879 232.121 211.879 240.121 211.879 240.121 213.049 241.292 214.951 241.292 216.121 240.121 217.292 238.951 217.292 237.049 216.121 235.879L210.243 230zM237.757 230L231.879 235.879C230.708 237.049 230.708 238.951 231.879 240.121 233.049 241.292 234.951 241.292 236.121 240.121 236.121 240.121 244.121 232.121 244.121 232.121 245.293 230.95 245.293 229.05 244.121 227.879 244.121 227.879 236.121 219.879 236.121 219.879 234.951 218.708 233.049 218.708 231.879 219.879 230.708 221.049 230.708 222.951 231.879 224.121L237.757 230zM222.97 238.243C222.836 238.778 222.293 239.104 221.757 238.97 221.222 238.836 220.896 238.293 221.03 237.757 221.03 237.757 225.03 221.757 225.03 221.757 225.164 221.222 225.707 220.896 226.243 221.03 226.778 221.164 227.104 221.707 226.97 222.243 226.97 222.243 222.97 238.243 222.97 238.243zM213.293 221.293C213.683 220.903 214.317 220.903 214.707 221.293 215.097 221.683 215.097 222.317 214.707 222.707 214.707 222.707 209.373 228.042 208.306 229.109 207.846 229.568 207.828 230 207.828 230 207.828 230.265 207.934 230.52 208.121 230.707L214.707 237.293C215.097 237.683 215.097 238.317 214.707 238.707 214.317 239.097 213.683 239.097 213.293 238.707 213.293 238.707 205.293 230.707 205.293 230.707 204.902 230.317 204.902 229.683 205.293 229.293 205.293 229.293 213.293 221.293 213.293 221.293zM233.293 222.707C232.903 222.317 232.903 221.683 233.293 221.293 233.683 220.903 234.317 220.903 234.707 221.293 234.707 221.293 242.707 229.293 242.707 229.293 243.098 229.683 243.098 230.317 242.707 230.707 242.707 230.707 234.707 238.707 234.707 238.707 234.317 239.097 233.683 239.097 233.293 238.707 232.903 238.317 232.903 237.683 233.293 237.293 233.293 237.293 238.627 231.958 239.694 230.891 240.154 230.432 240.172 230 240.172 230 240.172 229.735 240.066 229.48 239.879 229.293 239.879 229.293 233.293 222.707 233.293 222.707zM251 200C251 198.343 249.657 197 248 197L200 197C198.343 197 197 198.343 197 200L197 207 251 207 251 200zM202 199C200.344 199 199 200.344 199 202 199 203.656 200.344 205 202 205 203.656 205 205 203.656 205 202 205 200.344 203.656 199 202 199zM210 199C208.344 199 207 200.344 207 202 207 203.656 208.344 205 210 205 211.656 205 213 203.656 213 202 213 200.344 211.656 199 210 199zM218 199C216.344 199 215 200.344 215 202 215 203.656 216.344 205 218 205 219.656 205 221 203.656 221 202 221 200.344 219.656 199 218 199zM223 202C223 202.796 223.316 203.559 223.879 204.121 224.441 204.684 225.204 205 226 205 230.52 205 241.48 205 246 205 246.796 205 247.559 204.684 248.121 204.121 248.684 203.559 249 202.796 249 202 249 202 249 202 249 202 249 201.204 248.684 200.441 248.121 199.879 247.559 199.316 246.796 199 246 199 241.48 199 230.52 199 226 199 225.204 199 224.441 199.316 223.879 199.879 223.316 200.441 223 201.204 223 202zM247 202C247 201.735 246.895 201.48 246.707 201.293 246.52 201.105 246.265 201 246 201L226 201C225.735 201 225.48 201.105 225.293 201.293 225.105 201.48 225 201.735 225 202 225 202.265 225.105 202.52 225.293 202.707 225.48 202.895 225.735 203 226 203L246 203C246.265 203 246.52 202.895 246.707 202.707 246.895 202.52 247 202.265 247 202zM202 201C202.552 201 203 201.448 203 202 203 202.552 202.552 203 202 203 201.448 203 201 202.552 201 202 201 201.448 201.448 201 202 201zM210 201C210.552 201 211 201.448 211 202 211 202.552 210.552 203 210 203 209.448 203 209 202.552 209 202 209 201.448 209.448 201 210 201zM218 201C218.552 201 219 201.448 219 202 219 202.552 218.552 203 218 203 217.448 203 217 202.552 217 202 217 201.448 217.448 201 218 201z"></path></g></svg>